<svg xmlns="http://www.w3.org/2000/svg" xmlns:xlink="http://www.w3.org/1999/xlink" width="764.04" height="523.68" viewBox="0 0 573.03 392.76" version="1.2"><defs><symbol overflow="visible" id="a"><path d="M33.86-59.813c-5.891.516-8.75 1.86-8.75 4.047 0 .672 1 1.016 3.187 1.016 2.031 0 3.719 0 4.89-.172-2.359 17.688-4.546 29.984-6.734 36.734-5.562-1.515-9.937-2.203-13.14-2.203-7.25 0-10.954 3.203-10.954 9.61 0 2.86 1.172 5.39 3.375 7.578C7.922-1.016 10.61 0 13.484 0c7.235 0 12.97-2.188 17.172-6.734 1.188.5 3.375 1.515 6.578 3.03 3.032 1.517 5.047 2.36 6.063 2.86s3.375 1.516 7.25 3.031c3.875 1.516 8.078 2.36 12.797 2.36 4.547 0 8.922-1.844 12.797-5.563 3.875-3.703 5.906-8.25 5.906-13.468 0-1.688-.672-2.532-2.031-2.532-.672 0-1.672 1.688-3.188 4.891-1.516 3.203-4.219 4.875-8.094 4.875-4.046 0-7.921-.5-11.453-1.516-3.547-.843-10.61-3.03-20.89-6.562 4.375-8.25 7.75-22.078 9.937-41.453 9.266-2.016 17.188-5.39 24.094-9.938 3.531-2.515 6.234-5.547 8.422-9.265 2.015-3.532 3.031-7.579 3.031-11.954 0-6.578-4.719-9.78-14.156-9.78-9.422 0-17.016 3.202-22.735 9.78-5.906 6.563-9.609 16-11.125 28.126zm12.968-1.843C50.031-82.891 56.266-93.5 65.36-93.5c4.22 0 6.235 3.031 6.235 9.094 0 6.062-2.36 10.953-6.906 14.656-4.72 3.875-10.61 6.578-17.86 8.094zM15.844-6.406c-2.203 0-4.047-.5-5.406-1.688-1.516-1.172-2.188-2.515-2.188-4.031 0-1.516.844-2.36 2.36-2.36 1.515 0 5.39 1.344 11.968 4.204-2.187 2.531-4.547 3.875-6.734 3.875zm0 0"/></symbol><symbol overflow="visible" id="b"><path d="M48.016-17.188c6.906-11.28 10.28-19.703 10.28-25.265 0-.844-.343-1.344-.843-1.344-.672 0-1.187.5-1.687 1.344-.516.844-1.344 2.36-2.188 4.375-3.375 7.922-7.422 14.828-12.14 21.062-2.188 2.86-4.72 5.22-7.407 6.735-2.703 1.515-5.734 2.36-9.093 2.36-3.375 0-6.235-1.688-8.766-4.876-2.531-3.203-4.047-6.906-4.547-11.297 8.25-.172 15.156-2.687 20.89-7.234 5.563-4.563 8.422-10.11 8.422-16.86 0-3.53-1.171-6.39-3.703-8.593-2.53-2.016-5.562-3.032-9.437-3.032-8.25 0-14.828 3.204-20.047 9.438C2.531-44.141 0-34.875 0-22.578c0 6.062 1.86 11.453 5.563 16.172 3.703 4.89 8.75 7.25 14.984 7.25C31.5.844 40.594-5.22 48.016-17.188zM16-46.328c2.703-5.39 6.063-8.094 9.938-8.094 3.203 0 4.89 2.531 4.89 7.594 0 5.047-1.515 9.094-4.547 12.297-3.203 3.203-8.093 5.218-14.656 6.39.172-6.562 1.688-12.625 4.375-18.187zm0 0"/></symbol><symbol overflow="visible" id="c"><path d="M26.953-50.203c1.86 0 2.703-1.86 2.703-5.734 0-1.672-.843-3.36-2.531-5.047-1.688-1.516-4.047-2.36-7.078-2.36-4.89 0-9.438 2.016-13.64 6.063C2.186-53.063 0-47.671 0-41.11c0 3.203.844 6.234 2.703 9.093 1 1.516 1.844 2.703 2.688 3.547.671.844 1.687 2.016 3.203 3.532 1.515 1.515 2.531 2.703 3.031 3.375C4.219-14.313.5-9.095.5-5.563c0 4.89 2.531 7.25 7.594 7.25 5.047 0 9.265-1.516 12.453-4.547 3.203-3.032 4.89-6.75 4.89-10.954 0-4.218-1.171-8.25-3.703-11.796C28.141-31 34.875-36.047 42.11-40.594c1.016-.687 1.532-1.687 1.532-2.875 0-1.172-.516-1.843-1.688-1.843-.516 0-1.016.156-1.516.5-8.093 5.89-15 11.28-20.89 16.171-.344-.343-.844-1.015-1.688-2.187L16-33.188c-.328-.5-.844-1.187-1.516-2.187-.671-1.016-1.171-1.86-1.343-2.703a8.382 8.382 0 01-.844-2.688 31.368 31.368 0 01-.328-4.547c0-1.859 1-4.39 3.187-7.421 2.203-2.86 4.39-4.375 6.75-4.375 2.188 0 3.36 1.015 3.36 3.03l-.328 2.532c0 .844.671 1.344 2.015 1.344zM15.843-5.391c-1.187 1.344-2.53 2.016-4.218 2.016-2.86 0-4.219-1.344-4.219-4.203 0-2.703 2.203-6.234 6.75-10.781 3.531 5.218 4.203 9.593 1.688 12.968zm0 0"/></symbol><symbol overflow="visible" id="d"><path d="M46.672-106.984c-3.875 0-6.75 3.546-8.938 10.78-9.937 1.86-18.359 5.563-24.937 10.954C6.062-79.687 2.703-73.281 2.703-65.703c0 3.875 1.672 5.734 5.047 5.734 1.86 0 3.375-.843 4.547-2.36 1.187-1.515 1.687-3.718 1.687-6.577 0-4.89 2.188-9.266 6.407-12.797 4.203-3.547 9.422-6.234 15.828-7.75-.5 3.203-1.516 19.703-3.032 49.687a14.373 14.373 0 00-3.703-.5c-2.359 0-3.547 1.344-3.547 3.875 0 2.532 2.36 4.547 6.907 6.063-.328 6.75-.828 11.625-1.344 14.656a24.264 24.264 0 01-2.86 8.094c-1.343 2.36-2.015 4.203-2.015 5.562 0 4.375 2.516 6.563 7.75 6.563 7.734 0 11.61-10.953 11.61-32.844 13.484 0 24.265-3.203 32.515-9.781 8.266-6.563 12.297-14.984 12.297-25.61 0-6.39-1.172-11.953-3.531-16.671-2.532-4.547-5.735-8.094-9.594-10.61a52.278 52.278 0 00-12.313-5.234c-4.203-1-7.906-1.516-10.78-1.516-3.032 0-4.876 0-5.548.172 0-6.234-.843-9.437-2.36-9.437zm24.422 65.546c-4.89 4.876-11.969 7.235-21.39 7.235-.845 0-2.188-.172-3.72-.328 0-17.532.844-36.219 2.532-56.11 8.265.344 15.172 3.204 21.062 8.422 5.734 5.39 8.594 13.14 8.594 23.25 0 6.907-2.36 12.64-7.078 17.532zm0 0"/></symbol><symbol overflow="visible" id="e"><path d="M12.469-44.469c1.515-2.703 2.36-5.39 2.36-8.093 0-2.688-.845-5.22-2.532-7.407-1.86-2.203-3.703-3.203-5.735-3.203-2.187 0-3.703 1-4.875 3.031C.5-58.125 0-55.766 0-53.063c0 2.688.672 5.047 2.016 7.235 2.53 4.219 7.078 6.234 13.656 6.234-1.86 6.407-2.875 14.157-2.875 23.078 0 8.938.344 13.813 1.187 14.657C16.172 0 19.547.844 23.922.844c6.062 0 13.484-9.438 22.406-28.297 3.203-6.922 4.89-11.797 4.89-15 0-.844-.343-1.344-1.015-1.344-.844 0-2.86 3.703-6.062 10.953C40.766-25.609 37.406-19.547 34.03-15c-3.375 4.719-6.062 7.078-7.922 7.25-.672 0-1-1.86-1-5.734 0-3.704.328-8.75 1.172-15.329.672-6.562 1.016-10.265 1.016-11.453 0-1.172-.344-2.187-1.016-3.203-.672-1-1.515-1.515-2.36-1.515l-9.265 1.015c-1.015 0-1.687-.172-2.187-.5zm0 0"/></symbol><symbol overflow="visible" id="f"><path d="M69.75-27.453c3.203-6.922 4.875-11.797 4.875-15 0-.844-.328-1.344-1-1.344-.844 0-2.875 3.703-6.063 10.953-3.374 7.235-6.75 13.297-10.109 17.844-3.375 4.719-6.062 7.078-7.922 7.25-.672 0-1.015-1.516-1.015-4.547 0-15.672.515-24.937 1.515-27.469.844-1.515 1.516-3.875 2.188-7.062.515-3.203.843-5.39.843-6.578 0-4.203-.843-6.407-2.359-6.407-1.672 0-3.703.844-5.89 2.532-2.36 1.86-4.047 3.375-4.891 4.547-4.547-4.72-8.594-7.078-12.125-7.078-8.25 0-15 3.546-20.047 10.453C2.531-42.453 0-34.375 0-25.437 0-16.345 1.688-9.767 5.047-5.563 8.422-1.345 12.297.843 16.844.843c4.547 0 8.265-1.86 11.125-5.39 2.86-3.548 5.718-8.938 8.593-16.173-.171 5.39-.343 9.594-.343 12.797 0 3.203.343 5.219 1.187 6.063C39.594 0 42.953.844 47.344.844c6.062 0 13.468-9.438 22.406-28.297zm-36.219-23.25c2.516 1.672 4.203 3.36 5.219 5.219-.172 1.172-.172 2.687-.344 4.89-.156 2.188-.328 3.875-.5 4.703-7.25 18.532-12.64 27.797-16.343 27.797-3.032 0-5.391-2.015-7.25-6.062-1.844-4.031-2.86-9.266-2.86-15.5 0-6.235 1.86-11.782 5.39-16.5 3.548-4.547 6.735-6.907 9.938-6.907 1.86 0 4.219.844 6.75 2.36zm0 0"/></symbol><symbol overflow="visible" id="g"><path d="M28.297-29.813c4.219-7.75 6.906-12.468 8.265-14.328 1.172-1.843 2.516-3.203 3.876-4.375 1.343-1.015 2.515-2.187 3.703-3.375 1.015-1.172 1.515-2.53 1.515-3.875 0-1.343-.343-2.359-.843-3.03-.672-.673-2.016-1.017-4.047-1.017-.844 0-2.016 1.016-3.36 3.032-1.36 2.203-3.203 5.562-5.734 10.11-2.531 4.718-4.547 8.421-6.235 11.124-4.89-9.937-7.75-15.844-8.765-17.516 0-2.187-.5-4.218-1.344-6.234-1.015-2.031-2.531-3.031-4.547-3.031-2.187 0-3.875 1.516-5.39 4.375-1.516 3.031-2.36 5.562-2.36 7.406 0 2.031.844 4.219 2.531 6.578 1.516 2.36 3.704 5.39 6.235 8.922 2.515 3.719 4.719 7.078 6.234 10.11-4.89 6.578-10.625 12.812-16.86 18.53-1.515 1.36-2.187 2.36-2.187 3.204 0 .844.172 1.344.516 1.86.156.5.844 1 2.016 1.515 1.187.5 2.703.672 4.718.672 2.016 0 4.204-1.516 6.735-4.719 2.36-3.203 5.219-7.75 8.594-13.64 3.875 8.25 6.406 13.468 7.578 15.328 1.187 2.015 3.875 3.03 7.922 3.03 5.39 0 12.468-9.265 21.062-27.796 3.36-7.078 5.047-12.297 5.047-15.5 0-.844-.328-1.344-.844-1.344-.672 0-1.344.844-2.016 2.36-.5.843-1.015 1.843-1.515 3.187-.5 1.531-1.344 3.203-2.188 5.063C49.187-16.845 43.797-8.595 40.437-8.595c-1.187 0-5.234-7.078-12.14-21.218zm0 0"/></symbol><symbol overflow="visible" id="h"><path d="M9.438-71.766c3.203 0 5.718-1.343 7.578-3.875 1.859-2.53 2.687-5.39 2.687-8.937 0-3.531-1.515-5.219-4.547-5.219-1.672 0-3.531.672-5.719 2.188-2.187 1.515-3.203 3.203-3.203 5.234 0 7.063 1.016 10.61 3.204 10.61zM33.53-27.453c3.188-6.922 4.875-11.797 4.875-15 0-.844-.328-1.344-1-1.344-.843 0-2.875 3.703-6.078 10.953-3.36 7.235-6.734 13.297-10.094 17.844-3.375 4.719-6.078 7.078-7.922 7.25-.671 0-1.015-1.516-1.015-4.547 0-15.672.672-25.437 2.187-29.14.844-1.516 1.516-3.876 2.188-7.079.515-3.203.844-5.39.844-6.578 0-4.203-.844-6.39-2.36-6.39-1.672 0-4.031 1.172-6.906 3.703-2.86 2.531-4.719 4.203-5.219 5.047-.5.843-1.172 6.906-1.86 18.203C.345-23.25 0-15.156 0-10.281c0 4.89.344 7.578 1.172 8.422C3.375 0 6.734.844 11.125.844c6.063 0 13.469-9.438 22.406-28.297zm0 0"/></symbol></defs><g fill="#565a5b"><use xlink:href="#a" x="15.536" y="379.409"/><use xlink:href="#b" x="96.739" y="379.409"/><use xlink:href="#c" x="146.101" y="379.409"/><use xlink:href="#b" x="181.142" y="379.409"/></g><use xlink:href="#d" x="230.502" y="379.409" fill="#565a5b"/><use xlink:href="#e" x="323.665" y="379.409" fill="#565a5b"/><g fill="#565a5b"><use xlink:href="#f" x="366.623" y="379.409"/><use xlink:href="#g" x="431.147" y="379.409"/></g><use xlink:href="#h" x="484.383" y="379.409" fill="#565a5b"/><use xlink:href="#c" x="513.863" y="379.409" fill="#565a5b"/><path d="M171.617 205.105a81.561 81.561 0 01-52.484 19.114c-2.27 0-4.535 0-6.805-.324-22.355-1.946-42.117-12.637-55.402-28.508-13.281-16.2-20.735-37.258-18.79-59.293v-.32c1.946-22.36 12.958-41.797 28.837-55.079 14.254-11.988 32.718-19.117 52.16-19.117 2.59 0 4.86 0 7.125.328 15.57 1.352 29.719 7.114 41.472 15.844a127.452 127.452 0 017.59-13.059c-8.93-6.406-19.023-11.367-29.984-14.445-1.598-2.238-2.68-4.812-2.875-7.781-1.3-14.903 15.55-13.281 14.254-12.961-1.297.328-13.934 13.61 3.562 14.902 17.172 1.625 21.059-34.34-18.468-34.015-31.293.257-39.836 27.105-42.04 38.28A95.736 95.736 0 0057.25 69.356c-18.79 15.551-31.75 38.88-34.02 65.122v.324c-2.265 26.242 6.48 51.187 22.36 69.98 15.875 19.114 38.875 31.75 65.441 34.016 2.59.324 5.508.324 8.102.324 23.328.324 45.035-8.098 62.203-22.355h-.324c.586-.485 1.144-.996 1.715-1.496a127.785 127.785 0 01-8.793-12.2 88.013 88.013 0 01-2.317 2.035" fill="#f9ad1a"/><path d="M99.043 106.29c-8.098-3.24-17.168.972-20.086 9.07-2.914 8.1.973 17.171 9.07 20.085 8.102 3.243 17.172-.968 20.41-9.066 2.918-8.102-.968-17.176-9.394-20.09M147.316 106.613c-8.097-3.242-17.168.973-20.41 9.075-2.914 8.097 1.297 17.167 9.395 20.406 6.629 2.386 13.898 0 17.926-5.383.175-5.61.71-11.133 1.597-16.54-1.71-3.394-4.664-6.175-8.508-7.558M121.723 196.031c-4.535.324-8.746 0-12.637-.644-9.719-1.621-17.168-6.157-22.027-11.02-4.536-4.531-6.805-9.715-6.805-12.957v-.972l-9.395-1.293v2.914c.325 5.183 3.563 12.308 9.72 18.789 5.831 6.156 14.901 11.664 27.214 13.933 4.21.649 9.07.973 14.578.649 23.59-1.438 35.352-14.168 40.813-23.317a125.854 125.854 0 01-4.047-11.77l-.805-.23c0 .325-6.152 23.977-36.61 25.918" fill="#f9ad1a"/><path d="M514.715 72.918a96.843 96.843 0 00-18.598-14.527c2.043-9.07 5.29-35.114-21.254-45.73-32.074-13.61-40.82 16.843-26.242 21.382 14.578 4.535 8.426-10.367 7.453-11.02-.648-.644 13.61 3.567 7.774 15.23-1.735 3.466-4.676 5.595-8.008 6.923a97.613 97.613 0 00-8.465-.426c-3.21-9.73-13.488-31.563-40.547-28.527-34.668 4.21-27.215 35.312-12.308 32.074 14.902-3.238 2.585-13.285 1.293-13.285-1.293-.32 13.609-3.563 14.257 9.394.082 3.34-1.093 6.262-2.894 8.801a96.362 96.362 0 00-19.88 12.066 127.18 127.18 0 017.587 13.188c14.004-11.813 32.148-18.824 51.797-18.824 22.351 0 42.761 9.07 57.668 23.972C518.926 98.188 528 118.602 528 140.953c0 22.68-9.074 42.77-23.652 57.672-14.907 14.578-35.317 23.652-57.668 23.652-21.813 0-41.758-8.652-56.262-22.617a127.52 127.52 0 01-8.453 12.504c17.152 15.606 39.793 25.016 64.715 25.016 26.566 0 50.863-10.692 68.035-28.188 17.496-17.172 28.187-41.469 28.187-68.039 0-26.562-10.691-50.539-28.187-68.035" fill="#f25b22"/><path d="M421.086 145.492c8.422.973 16.195-5.183 17.492-13.61.973-8.745-5.183-16.523-13.605-17.82-7.875-.87-14.95 4.04-17.23 11.41.226 3.087.382 6.188.382 9.329v.324c0 .066-.008.133-.008.2 2.047 5.218 6.875 9.265 12.969 10.167M465.469 131.238c8.75.973 16.523-5.187 17.496-13.61.973-8.745-4.86-16.523-13.61-17.495-8.746-1.293-16.52 4.86-17.492 13.61-.972 8.745 5.184 16.523 13.606 17.495M417.195 177.566v-.972l-9.394.648c0 .973.324 1.946.644 2.914 1.297 4.86 6.16 11.34 13.934 16.2 7.129 4.539 17.172 7.777 29.484 6.804 4.535-.324 9.395-.972 14.254-2.59 35.64-11.015 36.285-42.441 36.285-42.441l-9.394-.324s-.324 24.62-29.485 33.691c-4.535 1.297-8.421 2.27-12.308 2.594-10.043.648-18.145-1.945-23.977-5.832-5.508-3.242-9.07-7.778-10.043-10.692" fill="#f25b22"/><path d="M361.469 179.508c-1.942 3.242-.973 7.777 2.594 9.722l13.375 7.868c-4.446 6.879-9.57 13.273-15.32 19.023a116.606 116.606 0 01-17.888 14.625l-8.03-13.656c-1.942-3.563-6.477-4.535-9.72-2.59-3.562 1.941-4.535 6.156-2.593 9.719l7.832 13.765a112.571 112.571 0 01-43.145 11.578v-26.964c0-3.887-3.238-7.125-7.125-7.125-4.215 0-7.129 3.238-7.129 7.125v26.972a114.533 114.533 0 01-43.715-11.62l8.075-13.731c1.945-3.563.648-7.778-2.59-9.719-3.563-1.945-8.102-.973-10.043 2.59l-7.82 13.754c-6.536-4.305-12.61-9.23-18.098-14.723a115.497 115.497 0 01-14.5-17.742l14.176-8.18c3.562-1.941 4.535-6.476 2.59-9.719-1.942-3.562-6.157-4.859-9.72-2.59l-14.28 7.962a113.906 113.906 0 01-11.665-42.954h27.567c3.887 0 7.125-3.242 7.125-7.125 0-3.89-3.238-7.128-7.125-7.128h-27.692c.852-15.723 4.946-30.684 11.59-44.18L193 93.008c3.238 1.941 7.773.969 9.719-2.594 1.945-3.238.648-7.773-2.59-9.719l-14.867-8.574c4.34-6.613 9.312-12.762 14.867-18.316a115.277 115.277 0 0117.422-14.29l8.496 14.938c1.941 3.563 6.48 4.86 10.043 2.914 3.238-2.265 4.535-6.48 2.59-10.043l-8.805-14.972a114.39 114.39 0 0144.445-11.997v28.59c0 3.887 2.914 7.13 7.13 7.13 3.886 0 7.124-3.243 7.124-7.13V20.36c15.676.985 30.496 5.192 43.856 11.946l-8.543 15.02c-1.942 3.562-.969 7.777 2.593 10.042 3.243 1.946 7.778.649 9.72-2.914l8.722-14.832a116.79 116.79 0 0117.195 14.184c5.555 5.554 10.528 11.703 14.867 18.316l-14.867 8.574c-3.238 1.946-4.535 6.48-2.59 9.72 1.942 3.562 6.48 4.534 9.72 2.593l14.804-8.543c6.644 13.496 10.738 28.457 11.59 44.18h-27.692c-3.887 0-7.129 3.238-7.129 7.128 0 3.883 3.243 7.125 7.13 7.125h27.566a113.886 113.886 0 01-10.985 41.606l-13.34-7.586c-3.562-1.945-7.777-.973-9.722 2.59zm46.648-44.184c0-.066.008-.133.008-.199v-.324c0-3.14-.156-6.242-.383-9.328a125.943 125.943 0 00-20.445-60.2c-4.79-7.289-10.285-14.074-16.43-20.214C347.863 22.055 316.437 8.12 281.45 8.12c-35.316 0-67.066 13.934-90.07 36.938A128.243 128.243 0 00175.32 64.69a127.452 127.452 0 00-7.59 13.059 125.987 125.987 0 00-11.906 36.422 126.691 126.691 0 00-1.597 16.539c-.043 1.36-.106 2.719-.106 4.09v.324a126.4 126.4 0 005.016 35.219 125.854 125.854 0 004.047 11.77 126.957 126.957 0 0010.75 20.956c2.699 4.239 5.625 8.32 8.793 12.2 2.726 3.343 5.609 6.55 8.652 9.597 23.004 23.004 54.754 37.262 90.07 37.262 34.988 0 66.414-14.258 89.418-37.262 3.977-3.976 7.672-8.234 11.098-12.703a127.52 127.52 0 008.453-12.504c11.2-18.879 17.664-40.87 17.7-64.336" fill="#69cbb2"/><path d="M359.852 105.64l-4.211-7.773-61.235 35.313-1.941.972-.324 1.942s-.329 4.215-4.211 8.101c-3.567 3.567-7.457 3.567-11.02 0-3.887-3.886-4.535-8.101-4.535-8.101l-.324-1.942-1.942-.972-61.234-35.313-4.535 7.774 59.613 34.343c.969 2.27 2.594 6.48 6.477 10.368 7.129 7.125 16.847 7.125 23.652 0 3.89-3.887 5.832-8.098 6.48-10.368l59.29-34.343" fill="#565a5b"/><path d="M217.945 94.625l-2.59 3.563 64.149 38.234zm0 0M347.54 98.512l-2.595-3.563-61.23 41.793zm0 0M222.48 87.82l-2.914 3.567 60.907 43.09zm0 0M343.328 91.387l-2.918-3.242-57.664 46.656zm0 0M282.098 133.828l-.286-.281-.019.02zm0 0M281.773 133.512l-52.812-51.844-3.238 3.238 56.03 48.625.02-.02" fill="#565a5b"/><path d="M281.121 134.152l.672-.586.02-.02 55.359-48.64-3.238-2.914-52.16 51.52-.02.02-.633.62" fill="#565a5b"/></svg>